<svg width="761" height="289" viewBox="0 0 761 289" fill="none" xmlns="http://www.w3.org/2000/svg">
<path d="M372.863 -863.401C432.67 -847.814 511.276 -717.841 586.729 -569.547L726.338 -439.41C847.782 -326.205 628.483 -81.7585 403.12 81.4365C177.757 244.632 185.086 242.013 70.9699 126.19C-43.1461 10.3662 -59.6609 176.881 -203.928 266.835C-348.195 356.79 -61.6474 154.259 -47.4835 -85.3209C-33.3196 -324.901 -120.528 -238.95 114.28 -405.154C349.088 -571.357 302.805 -598.72 264.583 -646.161C226.362 -693.602 179.268 -624.102 144.448 -668.372C109.628 -712.642 148.388 -726.123 234.697 -801.592C321.006 -877.061 313.057 -878.988 372.863 -863.401Z" fill="#120ECF"/>
</svg>
