<svg width="1440" height="1081" viewBox="0 0 1440 1081" fill="none" xmlns="http://www.w3.org/2000/svg">
<mask id="mask0_23_44" style="mask-type:alpha" maskUnits="userSpaceOnUse" x="-689" y="-1442" width="1883" height="2321">
<path d="M-688.161 517.161L303.39 878.296L1007.09 -158.008L1193.22 -550.483L1034.88 -1314.99L586.927 -1441.07L-138.081 -370.865L-688.161 517.161Z" fill="url(#paint0_linear_23_44)"/>
</mask>
<g mask="url(#mask0_23_44)">
</g>
<mask id="mask1_23_44" style="mask-type:alpha" maskUnits="userSpaceOnUse" x="-618" y="-1562" width="2082" height="2624">
<path d="M640.117 -1561.29C993.428 -1230.62 1444.07 -808.696 1463.01 -794.22L205.704 1061.73L-617.191 294.669L640.117 -1561.29Z" fill="url(#paint1_linear_23_44)"/>
</mask>
<g mask="url(#mask1_23_44)">
<path d="M822.138 -119.086C680.33 90.2412 434.369 148.104 320.751 42.1939C207.133 -63.7157 115.434 -287.439 267.582 -512.03C342.978 -623.325 358.573 -829.256 504.73 -908.744C653.513 -989.659 787.739 -814.605 845.054 -761.179C958.672 -655.269 963.946 -328.414 822.138 -119.086Z" fill="url(#paint2_linear_23_44)"/>
<g filter="url(#filter0_f_23_44)">
<path d="M814.107 -130.667C662.022 93.8319 444.243 152.956 346.58 61.9191C248.918 -29.1174 178.134 -233.288 330.22 -457.787C405.586 -569.037 429.269 -767.338 567.444 -854.178C708.101 -942.578 820.574 -787.821 869.84 -741.898C967.503 -650.861 966.193 -355.165 814.107 -130.667Z" fill="url(#paint3_linear_23_44)"/>
</g>
<g filter="url(#filter1_f_23_44)">
<path d="M809.498 -123.866C639.039 127.753 382.743 182.639 262.338 70.4021C141.932 -41.8347 48.2335 -284.059 218.692 -535.679C303.162 -660.368 310.889 -900.167 471.206 -992.417C634.404 -1086.32 785.577 -889.463 846.316 -832.845C966.721 -720.609 979.956 -375.486 809.498 -123.866Z" fill="url(#paint4_linear_23_44)"/>
</g>
<g filter="url(#filter2_f_23_44)">
<path d="M775.565 -108.119C535.576 175.009 205.085 286.765 64.1653 155.406C-76.754 24.0479 -122.278 -275.634 82.1525 -577.401C183.458 -726.942 160.101 -1062.34 350.635 -1174.6C544.592 -1288.87 708.929 -1068.58 780.016 -1002.32C920.935 -870.962 1053.58 -436.107 775.565 -108.119Z" fill="url(#paint5_linear_23_44)"/>
</g>
<g filter="url(#filter3_f_23_44)">
<path d="M647.628 -56.6131C427.509 268.311 56.4499 378.793 -81.3279 250.363C-219.106 121.933 -253.037 -186.684 -32.9182 -511.608C76.1613 -672.624 156.023 -917.141 354.229 -1044.49C555.996 -1174.12 713.91 -954.675 783.412 -889.888C921.19 -761.458 867.746 -381.538 647.628 -56.6131Z" fill="url(#paint6_linear_23_44)"/>
</g>
<g filter="url(#filter4_f_23_44)">
<path d="M506.961 18.5855C279.488 354.365 -102.041 470.332 -242.961 338.974C-383.88 207.615 -417.365 -109.838 -189.893 -445.618C-77.1691 -612.013 5.91827 -864.179 210.018 -996.456C417.785 -1131.11 578.981 -906.193 650.068 -839.929C790.988 -708.571 734.433 -317.194 506.961 18.5855Z" fill="url(#paint7_linear_23_44)"/>
</g>
<g filter="url(#filter5_f_23_44)">
<path d="M700.46 -213.077C501.422 80.7296 144.371 160.563 3.45156 29.2048C-137.468 -102.154 -185.81 -397.676 13.2284 -691.483C111.862 -837.079 194.135 -1048.8 381.495 -1156.37C572.22 -1265.87 737.292 -1046.67 808.378 -980.405C949.298 -849.047 899.498 -506.884 700.46 -213.077Z" fill="url(#paint8_linear_23_44)"/>
</g>
</g>
<defs>
<filter id="filter0_f_23_44" x="238.012" y="-884.975" width="702.848" height="991.874" filterUnits="userSpaceOnUse" color-interpolation-filters="sRGB">
<feFlood flood-opacity="0" result="BackgroundImageFix"/>
<feBlend mode="normal" in="SourceGraphic" in2="BackgroundImageFix" result="shape"/>
<feGaussianBlur stdDeviation="2" result="effect1_foregroundBlur_23_44"/>
</filter>
<filter id="filter1_f_23_44" x="111.704" y="-1031.41" width="839.457" height="1171.27" filterUnits="userSpaceOnUse" color-interpolation-filters="sRGB">
<feFlood flood-opacity="0" result="BackgroundImageFix"/>
<feBlend mode="normal" in="SourceGraphic" in2="BackgroundImageFix" result="shape"/>
<feGaussianBlur stdDeviation="7" result="effect1_foregroundBlur_23_44"/>
</filter>
<filter id="filter2_f_23_44" x="-76.552" y="-1226.92" width="1034.96" height="1457.07" filterUnits="userSpaceOnUse" color-interpolation-filters="sRGB">
<feFlood flood-opacity="0" result="BackgroundImageFix"/>
<feBlend mode="normal" in="SourceGraphic" in2="BackgroundImageFix" result="shape"/>
<feGaussianBlur stdDeviation="10" result="effect1_foregroundBlur_23_44"/>
</filter>
<filter id="filter3_f_23_44" x="-245.389" y="-1138.72" width="1158.44" height="1495.35" filterUnits="userSpaceOnUse" color-interpolation-filters="sRGB">
<feFlood flood-opacity="0" result="BackgroundImageFix"/>
<feBlend mode="normal" in="SourceGraphic" in2="BackgroundImageFix" result="shape"/>
<feGaussianBlur stdDeviation="27" result="effect1_foregroundBlur_23_44"/>
</filter>
<filter id="filter4_f_23_44" x="-488.671" y="-1172.64" width="1349.41" height="1698.47" filterUnits="userSpaceOnUse" color-interpolation-filters="sRGB">
<feFlood flood-opacity="0" result="BackgroundImageFix"/>
<feBlend mode="normal" in="SourceGraphic" in2="BackgroundImageFix" result="shape"/>
<feGaussianBlur stdDeviation="67" result="effect1_foregroundBlur_23_44"/>
</filter>
<filter id="filter5_f_23_44" x="-181.551" y="-1248.5" width="1132.25" height="1400.9" filterUnits="userSpaceOnUse" color-interpolation-filters="sRGB">
<feFlood flood-opacity="0" result="BackgroundImageFix"/>
<feBlend mode="normal" in="SourceGraphic" in2="BackgroundImageFix" result="shape"/>
<feGaussianBlur stdDeviation="31" result="effect1_foregroundBlur_23_44"/>
</filter>
<linearGradient id="paint0_linear_23_44" x1="526.316" y1="-402.414" x2="436.533" y2="-1085.1" gradientUnits="userSpaceOnUse">
<stop stop-color="#C4C4C4"/>
<stop offset="1" stop-color="#C4C4C4" stop-opacity="0"/>
</linearGradient>
<linearGradient id="paint1_linear_23_44" x1="806.968" y1="-139.754" x2="146.493" y2="-563.586" gradientUnits="userSpaceOnUse">
<stop stop-color="#C4C4C4"/>
<stop offset="1" stop-color="#C4C4C4" stop-opacity="0"/>
</linearGradient>
<linearGradient id="paint2_linear_23_44" x1="827.956" y1="-781.997" x2="181.061" y2="-88.019" gradientUnits="userSpaceOnUse">
<stop stop-color="#0239FE"/>
<stop offset="1" stop-color="#0285FE"/>
</linearGradient>
<linearGradient id="paint3_linear_23_44" x1="856.921" y1="-758.818" x2="210.291" y2="-65.1241" gradientUnits="userSpaceOnUse">
<stop stop-color="#0239FE"/>
<stop offset="1" stop-color="#0285FE"/>
</linearGradient>
<linearGradient id="paint4_linear_23_44" x1="826.472" y1="-856.81" x2="101.725" y2="-79.3133" gradientUnits="userSpaceOnUse">
<stop stop-color="#0239FE"/>
<stop offset="1" stop-color="#0285FE"/>
</linearGradient>
<linearGradient id="paint5_linear_23_44" x1="792.011" y1="-997.697" x2="-121.518" y2="-17.6789" gradientUnits="userSpaceOnUse">
<stop stop-color="#0239FE"/>
<stop offset="1" stop-color="#0285FE"/>
</linearGradient>
<linearGradient id="paint6_linear_23_44" x1="736.46" y1="-940.715" x2="-237.826" y2="104.482" gradientUnits="userSpaceOnUse">
<stop stop-color="#0239FE"/>
<stop offset="1" stop-color="#0285FE"/>
</linearGradient>
<linearGradient id="paint7_linear_23_44" x1="602.076" y1="-891.961" x2="-404.758" y2="188.154" gradientUnits="userSpaceOnUse">
<stop stop-color="#0239FE"/>
<stop offset="1" stop-color="#0285FE"/>
</linearGradient>
<linearGradient id="paint8_linear_23_44" x1="748.561" y1="-1042.55" x2="-132.419" y2="-97.4478" gradientUnits="userSpaceOnUse">
<stop stop-color="#0239FE"/>
<stop offset="1" stop-color="#0285FE"/>
</linearGradient>
</defs>
</svg>
