<svg width="20" height="20" viewBox="0 0 20 20" fill="none" xmlns="http://www.w3.org/2000/svg">
<g clip-path="url(#clip0_1666_1218)">
<mask id="mask0_1666_1218" style="mask-type:luminance" maskUnits="userSpaceOnUse" x="0" y="0" width="20" height="20">
<path d="M0 0H20V20H0V0Z" fill="white"/>
</mask>
<g mask="url(#mask0_1666_1218)">
<path d="M5.80021 14.2C5.80021 14.5849 6.11521 14.8999 6.5002 14.8999H7.2002V17.3499C7.2002 17.9309 7.66919 18.3999 8.25018 18.3999C8.83118 18.3999 9.30017 17.9309 9.30017 17.3499V14.8999H10.7002V17.3499C10.7002 17.9309 11.1691 18.3999 11.7501 18.3999C12.3311 18.3999 12.8001 17.9309 12.8001 17.3499V14.8999H13.5001C13.8851 14.8999 14.2001 14.5849 14.2001 14.2V7.20003H5.80021V14.2ZM4.05023 7.20003C3.46924 7.20003 3.00024 7.66903 3.00024 8.25002V13.15C3.00024 13.731 3.46924 14.2 4.05023 14.2C4.63123 14.2 5.10022 13.731 5.10022 13.15V8.25002C5.10022 7.66903 4.63123 7.20003 4.05023 7.20003ZM15.9501 7.20003C15.3691 7.20003 14.9001 7.66903 14.9001 8.25002V13.15C14.9001 13.731 15.3691 14.2 15.9501 14.2C16.5311 14.2 17.0001 13.731 17.0001 13.15V8.25002C17.0001 7.66903 16.5311 7.20003 15.9501 7.20003ZM12.4711 3.11208L13.3811 2.20209C13.5211 2.06209 13.5211 1.84509 13.3811 1.7051C13.2411 1.5651 13.0241 1.5651 12.8841 1.7051L11.8481 2.74108C11.2753 2.451 10.6422 2.29992 10.0002 2.30009C9.32817 2.30009 8.69818 2.46109 8.13818 2.74108L7.0952 1.7051C6.9552 1.5651 6.7382 1.5651 6.5982 1.7051C6.4582 1.84509 6.4582 2.06209 6.5982 2.20209L7.51519 3.11908C6.98359 3.50806 6.55123 4.01694 6.25324 4.6044C5.95526 5.19186 5.80004 5.84133 5.80021 6.50004H14.2001C14.2001 5.10706 13.5211 3.87507 12.4711 3.11208ZM8.60018 5.10006H7.90019V4.40007H8.60018V5.10006ZM12.1001 5.10006H11.4001V4.40007H12.1001V5.10006Z" fill="#212121"/>
</g>
</g>
<defs>
<clipPath id="clip0_1666_1218">
<rect width="20" height="20" fill="white"/>
</clipPath>
</defs>
</svg>
