<svg width="20" height="20" viewBox="0 0 20 20" fill="none" xmlns="http://www.w3.org/2000/svg">
<path d="M16.6517 13.08C16.3057 13.846 16.1407 14.188 15.6947 14.865C15.0737 15.81 14.1987 16.988 13.1137 16.998C12.1497 17.007 11.9017 16.371 10.5937 16.378C9.28572 16.385 9.01172 17.009 8.04772 17C6.96272 16.99 6.13372 15.927 5.51172 14.981C3.77572 12.337 3.59372 9.23499 4.66472 7.58599C5.42572 6.41299 6.62672 5.72799 7.75672 5.72799C8.90672 5.72799 9.62872 6.35799 10.5797 6.35799C11.5017 6.35799 12.0637 5.72699 13.3937 5.72699C14.3987 5.72699 15.4637 6.27399 16.2217 7.21899C13.7367 8.58199 14.1407 12.131 16.6517 13.08Z" fill="#212121"/>
<path d="M12.9296 3.699C13.4756 2.999 13.8896 2.01 13.7386 1C12.8476 1.061 11.8056 1.628 11.1966 2.367C10.6446 3.038 10.1886 4.033 10.3656 5C11.3386 5.03 12.3446 4.449 12.9296 3.699Z" fill="#212121"/>
</svg>
