<svg width="48" height="37" viewBox="0 0 48 37" fill="none" xmlns="http://www.w3.org/2000/svg">
<path d="M43.5953 7.33325H32.7382C30.4853 7.33325 28.6667 9.09962 28.6667 11.2878V32.3787C28.6667 34.5669 30.4853 36.3333 32.7382 36.3333H43.5953C45.8482 36.3333 47.6667 34.5669 47.6667 32.3787V11.2878C47.6667 9.09962 45.8482 7.33325 43.5953 7.33325ZM40.881 33.6969H35.4525V32.3787H40.881V33.6969ZM45.2917 29.7423H31.0417V11.2878H45.2917V29.7423Z" fill="url(#paint0_linear_1666_1256)"/>
<path d="M17.5 0H4.16667C3.0616 0 2.00179 0.438987 1.22039 1.22039C0.438987 2.00179 0 3.0616 0 4.16667V32.5C0 33.6051 0.438987 34.6649 1.22039 35.4463C2.00179 36.2277 3.0616 36.6667 4.16667 36.6667H17.5C18.6051 36.6667 19.6649 36.2277 20.4463 35.4463C21.2277 34.6649 21.6667 33.6051 21.6667 32.5V4.16667C21.6667 3.0616 21.2277 2.00179 20.4463 1.22039C19.6649 0.438987 18.6051 0 17.5 0ZM10.8333 35C9.45 35 8.33333 33.8833 8.33333 32.5C8.33333 31.1167 9.45 30 10.8333 30C12.2167 30 13.3333 31.1167 13.3333 32.5C13.3333 33.8833 12.2167 35 10.8333 35ZM18.3333 28.3333H3.33333V5H18.3333V28.3333Z" fill="url(#paint1_linear_1666_1256)"/>
<defs>
<linearGradient id="paint0_linear_1666_1256" x1="23.3334" y1="0" x2="23.3334" y2="36.6667" gradientUnits="userSpaceOnUse">
<stop stop-color="#8EA8D3"/>
<stop offset="1" stop-color="#B9C5D4" stop-opacity="0.7"/>
</linearGradient>
<linearGradient id="paint1_linear_1666_1256" x1="23.3334" y1="0" x2="23.3334" y2="36.6667" gradientUnits="userSpaceOnUse">
<stop stop-color="#8EA8D3"/>
<stop offset="1" stop-color="#B9C5D4" stop-opacity="0.7"/>
</linearGradient>
</defs>
</svg>
