<svg width="48" height="48" viewBox="0 0 48 48" fill="none" xmlns="http://www.w3.org/2000/svg">
<path d="M24 11C26.7614 11 29 8.76142 29 6C29 3.23858 26.7614 1 24 1C21.2386 1 19 3.23858 19 6C19 8.76142 21.2386 11 24 11Z" fill="url(#paint0_linear_1666_1422)"/>
<path d="M42 13H6C5.46957 13 4.96086 13.2107 4.58579 13.5858C4.21071 13.9609 4 14.4696 4 15C4 15.5304 4.21071 16.0391 4.58579 16.4142C4.96086 16.7893 5.46957 17 6 17H18V44.5C18 45.163 18.2634 45.7989 18.7322 46.2678C19.2011 46.7366 19.837 47 20.5 47C21.163 47 21.7989 46.7366 22.2678 46.2678C22.7366 45.7989 23 45.163 23 44.5V30H30.368L26.785 36.84C26.4773 37.4275 26.4157 38.1131 26.6135 38.746C26.8114 39.3789 27.2525 39.9073 27.84 40.215C28.4275 40.5227 29.1131 40.5843 29.746 40.3865C30.3789 40.1886 30.9073 39.7475 31.215 39.16L36.715 28.66C36.9146 28.2789 37.0125 27.8528 36.9992 27.4229C36.9859 26.9929 36.862 26.5736 36.6392 26.2056C36.4165 25.8376 36.1026 25.5333 35.7278 25.3221C35.3531 25.1109 34.9302 24.9999 34.5 25H30V17H42C42.5304 17 43.0391 16.7893 43.4142 16.4142C43.7893 16.0391 44 15.5304 44 15C44 14.4696 43.7893 13.9609 43.4142 13.5858C43.0391 13.2107 42.5304 13 42 13Z" fill="url(#paint1_linear_1666_1422)"/>
<defs>
<linearGradient id="paint0_linear_1666_1422" x1="24" y1="1" x2="24" y2="47" gradientUnits="userSpaceOnUse">
<stop stop-color="#9F8ED3"/>
<stop offset="1" stop-color="#B9B9D4" stop-opacity="0.7"/>
</linearGradient>
<linearGradient id="paint1_linear_1666_1422" x1="24" y1="1" x2="24" y2="47" gradientUnits="userSpaceOnUse">
<stop stop-color="#9F8ED3"/>
<stop offset="1" stop-color="#B9B9D4" stop-opacity="0.7"/>
</linearGradient>
</defs>
</svg>
