<svg width="94" height="31" viewBox="0 0 94 31" fill="none" xmlns="http://www.w3.org/2000/svg">
<path d="M41.5099 13.5367C41.4936 13.3208 41.4488 13.1315 41.3755 12.9686C41.3022 12.8016 41.1984 12.6611 41.064 12.5471C40.9296 12.429 40.7627 12.3415 40.5631 12.2844C40.3677 12.2234 40.1376 12.1928 39.8729 12.1928C39.3028 12.1928 38.7836 12.3292 38.3152 12.6021C37.8469 12.8749 37.454 13.2679 37.1363 13.781C36.8228 14.2941 36.6069 14.9131 36.4888 15.6379C36.3667 16.371 36.3565 16.9981 36.4583 17.5193C36.5601 18.0406 36.78 18.4397 37.118 18.7166C37.4601 18.9935 37.9223 19.1319 38.5046 19.1319C39.0259 19.1319 39.4758 19.0566 39.8546 18.9059C40.2333 18.7553 40.5367 18.5415 40.7647 18.2645C40.9927 17.9876 41.1353 17.6619 41.1923 17.2872L41.7787 17.3483H38.92L39.3109 14.9294H44.8573L44.5763 16.6642C44.389 17.8044 43.9859 18.7797 43.3669 19.5901C42.752 20.3964 41.9864 21.0154 41.0701 21.447C40.1539 21.8746 39.148 22.0884 38.0526 22.0884C36.8391 22.0884 35.8149 21.8298 34.9801 21.3126C34.1453 20.7955 33.5487 20.0584 33.1903 19.1014C32.836 18.1444 32.7668 17.0062 32.9826 15.6868C33.1537 14.6525 33.4632 13.7362 33.9111 12.938C34.3631 12.1399 34.9149 11.4659 35.5665 10.9162C36.218 10.3623 36.9368 9.94494 37.7227 9.66396C38.5087 9.3789 39.3231 9.23637 40.1661 9.23637C40.9032 9.23637 41.573 9.34225 42.1757 9.55401C42.7784 9.76169 43.2936 10.059 43.7212 10.4458C44.1487 10.8286 44.4684 11.2827 44.6802 11.808C44.896 12.3333 44.9836 12.9095 44.9428 13.5367H41.5099ZM46.2561 9.40741H50.0433L51.6315 14.4896H51.7537L55.0278 9.40741H58.815L52.8043 17.9836L52.1446 21.9174H48.7728L49.4325 17.9836L46.2561 9.40741ZM59.9221 9.40741H64.1491L65.8839 16.4931H66.0305L70.1109 9.40741H74.3379L72.261 21.9174H68.9381L70.1353 14.685H70.0376L66.0793 21.8196H64.0758L62.4876 14.6362H62.3899L61.1682 21.9174H57.8452L59.9221 9.40741ZM75.9474 9.40741H80.1744L81.9092 16.4931H82.0558L86.1362 9.40741H90.3632L88.2863 21.9174H84.9634L86.1606 14.685H86.0629L82.1047 21.8196H80.1011L78.5129 14.6362H78.4152L77.1935 21.9174H73.8706L75.9474 9.40741Z" fill="white"/>
<path d="M21.0883 12.4376C23.4163 12.4649 25.2953 14.36 25.2954 16.6944C25.2954 18.1679 24.8102 19.981 24.3676 21.1544C24.381 21.0301 24.3881 20.9033 24.3881 20.7754C24.3878 18.8417 22.8199 17.2737 20.8862 17.2735H15.7719C14.4362 17.2735 13.3531 16.1912 13.353 14.8555C13.353 13.5197 14.4361 12.4366 15.7719 12.4366H21.062C21.0706 12.4366 21.0797 12.4375 21.0883 12.4376Z" fill="white"/>
<mask id="mask0_232_4015" style="mask-type:alpha" maskUnits="userSpaceOnUse" x="0" y="1" width="27" height="29">
<rect y="1.40158" width="26.7564" height="27.6633" fill="url(#paint0_radial_232_4015)"/>
</mask>
<g mask="url(#mask0_232_4015)">
<g filter="url(#filter0_ii_232_4015)">
<path d="M7.22885 4.87253C9.62922 3.34448 12.4865 2.70398 15.308 3.06003C17.1981 3.29857 18.9935 3.97434 20.558 5.01901C21.843 5.8774 21.7749 7.68129 20.6497 8.74069C19.5213 9.80312 17.7454 9.67351 16.3138 9.07956C15.772 8.85475 15.1989 8.70093 14.6087 8.62643C13.0803 8.43354 11.5321 8.78113 10.2318 9.60886C8.93148 10.4366 7.95999 11.6932 7.48471 13.1616C7.00947 14.63 7.06024 16.2188 7.62827 17.6538C8.19632 19.0888 9.24644 20.2802 10.597 21.0229C11.9474 21.7655 13.5138 22.0135 15.0267 21.7231C16.5398 21.4326 17.9042 20.6215 18.8851 19.4311C19.3526 18.8638 19.7196 18.2275 19.9749 17.5493C20.4416 16.3096 21.4755 15.2016 22.8001 15.2016C24.1228 15.2017 25.223 16.2757 25.1185 17.5942C24.9618 19.5702 24.5003 21.4306 23.2035 23.0044C21.3927 25.2017 18.8734 26.6976 16.0804 27.2339C13.2875 27.77 10.3956 27.3128 7.90268 25.9419C5.40969 24.5709 3.4718 22.3719 2.42319 19.7231C1.37464 17.0743 1.28041 14.1417 2.15756 11.4311C3.03485 8.72041 4.82844 6.4006 7.22885 4.87253Z" fill="white"/>
</g>
</g>
<defs>
<filter id="filter0_ii_232_4015" x="1.56194" y="2.10738" width="24.7728" height="25.597" filterUnits="userSpaceOnUse" color-interpolation-filters="sRGB">
<feFlood flood-opacity="0" result="BackgroundImageFix"/>
<feBlend mode="normal" in="SourceGraphic" in2="BackgroundImageFix" result="shape"/>
<feColorMatrix in="SourceAlpha" type="matrix" values="0 0 0 0 0 0 0 0 0 0 0 0 0 0 0 0 0 0 127 0" result="hardAlpha"/>
<feOffset dx="1.51166" dy="-0.856606"/>
<feGaussianBlur stdDeviation="0.604663"/>
<feComposite in2="hardAlpha" operator="arithmetic" k2="-1" k3="1"/>
<feColorMatrix type="matrix" values="0 0 0 0 1 0 0 0 0 1 0 0 0 0 1 0 0 0 0.25 0"/>
<feBlend mode="normal" in2="shape" result="effect1_innerShadow_232_4015"/>
<feColorMatrix in="SourceAlpha" type="matrix" values="0 0 0 0 0 0 0 0 0 0 0 0 0 0 0 0 0 0 127 0" result="hardAlpha"/>
<feOffset dx="1.51166" dy="0.251943"/>
<feGaussianBlur stdDeviation="0.604663"/>
<feComposite in2="hardAlpha" operator="arithmetic" k2="-1" k3="1"/>
<feColorMatrix type="matrix" values="0 0 0 0 1 0 0 0 0 1 0 0 0 0 1 0 0 0 0.9 0"/>
<feBlend mode="normal" in2="effect1_innerShadow_232_4015" result="effect2_innerShadow_232_4015"/>
</filter>
<radialGradient id="paint0_radial_232_4015" cx="0" cy="0" r="1" gradientUnits="userSpaceOnUse" gradientTransform="translate(20.0295 11.177) rotate(111.559) scale(18.1692 17.8496)">
<stop offset="0.364581" stop-color="#D9D9D9" stop-opacity="0"/>
<stop offset="1" stop-color="#737373"/>
</radialGradient>
</defs>
</svg>
