<svg width="123" height="31" viewBox="0 0 123 31" fill="none" xmlns="http://www.w3.org/2000/svg">
<path d="M43.0099 13.5367C42.9936 13.3208 42.9488 13.1315 42.8755 12.9686C42.8022 12.8016 42.6984 12.6611 42.564 12.5471C42.4296 12.429 42.2627 12.3415 42.0631 12.2845C41.8676 12.2234 41.6376 12.1928 41.3729 12.1928C40.8028 12.1928 40.2835 12.3292 39.8152 12.6021C39.3469 12.8749 38.9539 13.2679 38.6363 13.781C38.3228 14.2941 38.1069 14.9131 37.9888 15.6379C37.8667 16.371 37.8565 16.9981 37.9583 17.5193C38.0601 18.0406 38.28 18.4397 38.618 18.7166C38.9601 18.9935 39.4223 19.1319 40.0046 19.1319C40.5258 19.1319 40.9758 19.0566 41.3545 18.9059C41.7333 18.7553 42.0366 18.5415 42.2647 18.2646C42.4927 17.9876 42.6353 17.6619 42.6923 17.2872L43.2787 17.3483H40.42L40.8109 14.9294H46.3573L46.0763 16.6642C45.889 17.8044 45.4858 18.7797 44.8669 19.5901C44.2519 20.3964 43.4864 21.0154 42.5701 21.447C41.6539 21.8746 40.648 22.0884 39.5526 22.0884C38.339 22.0884 37.3149 21.8298 36.4801 21.3126C35.6452 20.7955 35.0487 20.0584 34.6903 19.1014C34.336 18.1444 34.2668 17.0062 34.4826 15.6868C34.6537 14.6525 34.9631 13.7362 35.4111 12.938C35.8631 12.1399 36.4149 11.4659 37.0665 10.9162C37.718 10.3623 38.4368 9.94494 39.2227 9.66396C40.0087 9.3789 40.8231 9.23637 41.6661 9.23637C42.4031 9.23637 43.073 9.34225 43.6757 9.55401C44.2784 9.76169 44.7936 10.059 45.2211 10.4458C45.6487 10.8286 45.9684 11.2827 46.1802 11.808C46.396 12.3333 46.4835 12.9095 46.4428 13.5367H43.0099ZM47.7561 9.40741H51.5433L53.1315 14.4896H53.2537L56.5277 9.40741H60.3149L54.3043 17.9836L53.6446 21.9174H50.2728L50.9325 17.9836L47.7561 9.40741ZM61.4221 9.40741H65.6491L67.3839 16.4931H67.5305L71.6109 9.40741H75.8378L73.761 21.9174H70.438L71.6353 14.685H71.5376L67.5793 21.8196H65.5758L63.9876 14.6362H63.8899L62.6682 21.9174H59.3452L61.4221 9.40741ZM77.4474 9.40741H81.6744L83.4092 16.4931H83.5558L87.6362 9.40741H91.8632L89.7863 21.9174H86.4634L87.6606 14.685H87.5629L83.6046 21.8196H81.6011L80.0129 14.6362H79.9152L78.6935 21.9174H75.3706L77.4474 9.40741ZM93.3506 22.1128C92.8741 22.1128 92.4852 21.9479 92.1839 21.618C91.8866 21.2841 91.7624 20.8789 91.8113 20.4025C91.8601 19.9382 92.0698 19.5412 92.4404 19.2113C92.8151 18.8815 93.2406 18.7166 93.7171 18.7166C94.1691 18.7166 94.5458 18.8815 94.8471 19.2113C95.1525 19.5412 95.2808 19.9382 95.2319 20.4025C95.1994 20.7201 95.0874 21.0092 94.896 21.2699C94.7087 21.5264 94.4765 21.7321 94.1996 21.8868C93.9268 22.0375 93.6438 22.1128 93.3506 22.1128ZM100.021 21.9174H96.3559L102.562 9.40741H107.204L109.257 21.9174H105.592L104.37 12.8525H104.272L100.021 21.9174ZM100.168 16.9818H107.058L106.618 19.5229H99.7277L100.168 16.9818ZM115.935 9.40741L113.858 21.9174H110.462L112.538 9.40741H115.935Z" fill="white"/>
<path d="M21.0884 12.4376C23.4163 12.4649 25.2954 14.36 25.2954 16.6944C25.2954 18.1679 24.8102 19.981 24.3677 21.1544C24.381 21.0301 24.3882 20.9033 24.3882 20.7754C24.3879 18.8417 22.82 17.2737 20.8862 17.2735H15.772C14.4363 17.2735 13.3532 16.1912 13.353 14.8555C13.353 13.5197 14.4362 12.4366 15.772 12.4366H21.062C21.0707 12.4366 21.0798 12.4375 21.0884 12.4376Z" fill="white"/>
<mask id="mask0_447_774" style="mask-type:alpha" maskUnits="userSpaceOnUse" x="0" y="1" width="27" height="29">
<rect y="1.40158" width="26.7564" height="27.6633" fill="url(#paint0_radial_447_774)"/>
</mask>
<g mask="url(#mask0_447_774)">
<g filter="url(#filter0_ii_447_774)">
<path d="M7.22896 4.87292C9.62934 3.34487 12.4866 2.70339 15.3081 3.05944C17.1982 3.29798 18.9936 3.97473 20.5581 5.0194C21.8428 5.87786 21.775 7.68174 20.6499 8.74108C19.5213 9.8034 17.7455 9.67294 16.3139 9.07897C15.7721 8.85418 15.1989 8.70133 14.6088 8.62682C13.0803 8.43392 11.5323 8.78147 10.2319 9.60925C8.93151 10.437 7.96007 11.6935 7.48482 13.162C7.00959 14.6304 7.06032 16.2192 7.62837 17.6542C8.19642 19.0889 9.24578 20.2806 10.5961 21.0233C11.9467 21.766 13.5138 22.013 15.0268 21.7225C16.5398 21.432 17.9043 20.6218 18.8852 19.4315C19.3526 18.8643 19.7197 18.2278 19.9751 17.5497C20.4417 16.31 21.4756 15.201 22.8002 15.201C24.1228 15.2012 25.2229 16.2752 25.1186 17.5936C24.962 19.5698 24.5005 21.4309 23.2036 23.0048C21.3929 25.202 18.8735 26.697 16.0805 27.2333C13.2876 27.7695 10.3958 27.3131 7.90278 25.9423C5.4097 24.5712 3.47189 22.3714 2.42329 19.7225C1.37479 17.0737 1.28041 14.1412 2.15767 11.4305C3.03496 8.71993 4.82865 6.40096 7.22896 4.87292Z" fill="white"/>
</g>
</g>
<defs>
<filter id="filter0_ii_447_774" x="1.56201" y="2.10688" width="24.7728" height="25.5972" filterUnits="userSpaceOnUse" color-interpolation-filters="sRGB">
<feFlood flood-opacity="0" result="BackgroundImageFix"/>
<feBlend mode="normal" in="SourceGraphic" in2="BackgroundImageFix" result="shape"/>
<feColorMatrix in="SourceAlpha" type="matrix" values="0 0 0 0 0 0 0 0 0 0 0 0 0 0 0 0 0 0 127 0" result="hardAlpha"/>
<feOffset dx="1.51166" dy="-0.856606"/>
<feGaussianBlur stdDeviation="0.604663"/>
<feComposite in2="hardAlpha" operator="arithmetic" k2="-1" k3="1"/>
<feColorMatrix type="matrix" values="0 0 0 0 1 0 0 0 0 1 0 0 0 0 1 0 0 0 0.25 0"/>
<feBlend mode="normal" in2="shape" result="effect1_innerShadow_447_774"/>
<feColorMatrix in="SourceAlpha" type="matrix" values="0 0 0 0 0 0 0 0 0 0 0 0 0 0 0 0 0 0 127 0" result="hardAlpha"/>
<feOffset dx="1.51166" dy="0.251943"/>
<feGaussianBlur stdDeviation="0.604663"/>
<feComposite in2="hardAlpha" operator="arithmetic" k2="-1" k3="1"/>
<feColorMatrix type="matrix" values="0 0 0 0 1 0 0 0 0 1 0 0 0 0 1 0 0 0 0.9 0"/>
<feBlend mode="normal" in2="effect1_innerShadow_447_774" result="effect2_innerShadow_447_774"/>
</filter>
<radialGradient id="paint0_radial_447_774" cx="0" cy="0" r="1" gradientUnits="userSpaceOnUse" gradientTransform="translate(20.0295 11.177) rotate(111.559) scale(18.1692 17.8496)">
<stop offset="0.364581" stop-color="#D9D9D9" stop-opacity="0"/>
<stop offset="1" stop-color="#737373"/>
</radialGradient>
</defs>
</svg>
