<svg width="48" height="48" viewBox="0 0 48 48" fill="none" xmlns="http://www.w3.org/2000/svg">
<path fill-rule="evenodd" clip-rule="evenodd" d="M23.4285 2.17686C23.8079 2.12204 24.1932 2.12204 24.5726 2.17686C25.0099 2.24005 25.4167 2.39375 25.7398 2.5158L25.8264 2.54843L36.8112 6.66747C38.0468 7.12878 39.1319 7.53389 39.9676 8.27033C40.6986 8.91457 41.2617 9.72716 41.6082 10.6379C42.0044 11.6789 42.0027 12.8371 42.0008 14.156L42.0005 23.9997C42.0005 29.653 38.9259 34.3662 35.6024 37.8286C32.2566 41.3142 28.4285 43.7761 26.4043 44.957L26.3224 45.005C25.953 45.222 25.4735 45.5035 24.8393 45.6395C24.3203 45.7508 23.6807 45.7508 23.1618 45.6395C22.5276 45.5035 22.0481 45.222 21.6787 45.0051L21.5967 44.957C19.5725 43.7761 15.7444 41.3142 12.3986 37.8286C9.07511 34.3662 6.00053 29.653 6.00053 23.9997L6.00026 14.156C5.99835 12.8371 5.99667 11.6789 6.39281 10.6379C6.73935 9.72716 7.30248 8.91457 8.0335 8.27033C8.86915 7.53389 9.95423 7.12878 11.1898 6.66747L22.1747 2.54843L22.2613 2.51581C22.5843 2.39376 22.9912 2.24005 23.4285 2.17686ZM32.4147 19.4142C33.1958 18.6332 33.1958 17.3668 32.4147 16.5858C31.6337 15.8047 30.3673 15.8047 29.5863 16.5858L22.0005 24.1716L19.4147 21.5858C18.6337 20.8047 17.3673 20.8047 16.5863 21.5858C15.8052 22.3668 15.8052 23.6332 16.5863 24.4142L20.5863 28.4142C21.3673 29.1953 22.6337 29.1953 23.4147 28.4142L32.4147 19.4142Z" fill="url(#paint0_linear_1666_1270)"/>
<defs>
<linearGradient id="paint0_linear_1666_1270" x1="24.0005" y1="2.13574" x2="24.0005" y2="45.723" gradientUnits="userSpaceOnUse">
<stop stop-color="#8ED3D2"/>
<stop offset="1" stop-color="#B9D2D4" stop-opacity="0.7"/>
</linearGradient>
</defs>
</svg>
